<?xml version="1.0" encoding="UTF-8"?>
<svg id="Layer_1" xmlns="http://www.w3.org/2000/svg" version="1.1" viewBox="0 0 80 80">
  <!-- Generator: Adobe Illustrator 30.1.0, SVG Export Plug-In . SVG Version: 2.1.1 Build 136)  -->
  <defs>
    <style>
      .st0 {
        fill: #34313c;
      }
    </style>
  </defs>
  <path class="st0" d="M64.31,22.53c-4-1.29-7.16-2.38-9.78-.49-.08-.1-.15-.22-.23-.31-2.78-3.24-7.37-5.47-14.02-5.56-6.65-.09-13.7,3.62-15.46,5.93-.03.03-.05.08-.08.12-2.67-2.14-5.9-1.02-10.02.31C8.97,24.37-.56,29.6-.22,33.61c.34,4.01,4.6,9.17,11.69,15.44,7.09,6.28,7.5,7.16,10.52,6.12,1.22-.42,2.27-1.87,3.12-3.58-.11-1.35-.2-2.16-.36-3.06-.17-.94-.63-3.3-.83-4.17s-.66-2.8-.88-4.19c-.21-1.39-.42-2.61-.59-4.02-.17-1.4-.18-2.64-.18-3.02,0-.23.02-.67.04-.98.01-.19.03-.32.03-.33,0,0,.03-.12.12-.21,0,0,0,0,0,0,.07-.07.18-.12.29-.12.08,0,.15.02.21.06.06.04.09.07.12.1.03.03.06.09.07.15s.02.06.02.11c0,0-.07.51-.05,1.61.02,1.1.14,2.35.27,3.4.14,1.06.31,2.17.51,3.29.2,1.12.98,4.62,1.21,5.75.23,1.13.64,3.24.77,4.78.05.59.07,1.03.08,1.39.98,2.27,2.12,4.24,3.6,5.93,1.46,1.66,3.66,3.69,6.3,4.96.18-.07.39-.15.58-.26.53-.29.88-.51,1.16-.74.28-.22.89-.83,1.26-1.32.37-.49.64-1.04.87-1.66.03-.07.05-.13.07-.19-1.86-.17-4.1-1.45-4.1-3.62,0-2.31,1.44-3.05,4.87-3.05,2.8,0,4.41.7,4.34,3.21-.06,2.18-1.91,3.13-3.64,3.4.02.07.05.16.08.25.23.62.51,1.17.87,1.66.37.49.98,1.1,1.26,1.32s.63.44,1.16.74c.24.13.51.24.72.31,1.71-.9,3.43-2.35,5.13-4.57,1.41-1.84,2.56-3.61,3.51-5.29-.02-.26-.04-.91.08-2.35.13-1.54.55-3.65.77-4.78.23-1.13,1.01-4.63,1.21-5.75.2-1.12.37-2.23.51-3.29.14-1.06.25-2.3.27-3.4.02-1.1-.05-1.61-.05-1.61,0-.05,0-.06.02-.11s.04-.11.07-.15c.03-.03.06-.06.12-.1.06-.04.13-.06.21-.06.11,0,.22.05.29.12,0,0,0,0,0,0,.09.09.12.21.12.21,0,0,.02.14.03.33.02.3.04.74.04.98,0,.38-.02,1.61-.18,3.02-.17,1.4-.38,2.63-.59,4.02-.21,1.39-.68,3.32-.88,4.19s-.66,3.24-.83,4.17c-.17.94-.27,1.77-.38,3.21-.02.22-.02.63-.02.8,0,.24.02.42.04.54.65.95,1.37,1.68,2.18,1.96,3.03,1.04,3.44.15,10.52-6.12,7.09-6.28,11.35-11.43,11.69-15.44.34-4.01-9.2-9.23-14.94-11.08ZM33.3,39.53s0,0,0,0c-.06.09-.15.15-.26.18-.08.02-.15,0-.22-.02-.07-.03-.1-.05-.13-.08-.03-.03-.08-.08-.1-.13-.02-.05-.03-.06-.04-.1,0,0-.04-.51-.3-1.58-.05-.21-.3-.88-.51-1.17-.2-.29-.55-.72-1.32-.87-.78-.15-1.63,0-2.04.17-.41.17-.79.55-1.07,1.06-.28.51-.44,1.3-.47,1.49-.19,1.08-.22,1.59-.22,1.59,0,.05-.01.06-.04.1-.02.05-.06.1-.1.13-.03.03-.07.05-.13.08-.07.03-.14.04-.22.03-.11-.02-.2-.08-.26-.17,0,0,0,0,0,0-.07-.1-.08-.23-.08-.23,0,0,0-.14.03-.33.03-.3.09-.74.13-.97.09-.59.24-1.11.38-1.52.14-.41.36-.88.8-1.38s1.12-.76,1.45-.82c.33-.07.81-.15,1.54-.1s1.19.26,1.64.55c.44.29.83.91,1.04,1.42.21.5.32.96.36,1.13.05.23.15.68.19.99.03.19.04.32.04.33,0,0,0,.12-.07.23ZM54.54,39.45s0,0,0,0c-.06.09-.15.15-.26.17-.08.01-.15,0-.22-.03-.07-.03-.1-.05-.13-.08-.03-.03-.07-.08-.1-.13-.02-.05-.03-.06-.04-.1,0,0-.03-.51-.22-1.59-.03-.19-.2-.99-.47-1.49s-.66-.88-1.07-1.06c-.41-.17-1.26-.32-2.04-.17-.78.15-1.12.59-1.32.87-.2.29-.46.96-.51,1.17-.27,1.07-.3,1.58-.3,1.58,0,.05-.01.05-.04.1-.02.05-.06.1-.1.13-.03.03-.07.05-.13.08-.07.03-.14.04-.22.02-.11-.02-.2-.09-.26-.18,0,0,0,0,0,0-.07-.11-.07-.23-.07-.23,0,0,.01-.14.04-.33.04-.3.14-.76.19-.99.04-.17.15-.63.36-1.13.21-.5.6-1.13,1.04-1.42.44-.29.9-.51,1.64-.55s1.22.04,1.54.1c.33.07,1.01.32,1.45.82.44.5.66.97.8,1.38.14.41.29.93.38,1.52.04.23.1.67.13.97.02.19.03.32.03.33,0,0,0,.12-.08.23Z"/>
  <path class="st0" d="M44.02,63.41c-.68-.37-1.17-.8-1.44-1.05s-.61-.54-1.15-1.31c-.54-.78-.57-.92-.82-1.58-.03-.08-.05-.15-.08-.22-.03.07-.05.14-.08.22-.25.65-.28.8-.82,1.58-.54.78-.88,1.07-1.15,1.31-.27.25-.76.68-1.44,1.05-.07.04-.12.06-.18.09,2.29.88,4.84,1.13,7.47.08-.1-.05-.21-.1-.33-.16Z"/>
</svg>