<?xml version="1.0" encoding="UTF-8"?>
<svg id="Layer_1" xmlns="http://www.w3.org/2000/svg" version="1.1" viewBox="0 0 144 144">
  <!-- Generator: Adobe Illustrator 30.1.0, SVG Export Plug-In . SVG Version: 2.1.1 Build 136)  -->
  <defs>
    <style>
      .st0 {
        fill: #34313c;
      }
    </style>
  </defs>
  <path class="st0" d="M116.92,39.96c-7.25-2.33-12.97-4.31-17.71-.89-.14-.18-.28-.39-.42-.56-5.04-5.88-13.35-9.91-25.4-10.08-12.05-.17-24.81,6.55-28,10.75-.05.06-.09.15-.14.22-4.83-3.88-10.68-1.85-18.16.56C16.68,43.3-.6,52.77.02,60.03c.61,7.26,8.33,16.61,21.17,27.98,12.84,11.37,13.59,12.97,19.07,11.09,2.21-.76,4.1-3.39,5.64-6.48-.21-2.44-.37-3.91-.66-5.54-.3-1.7-1.15-5.99-1.5-7.56s-1.2-5.07-1.59-7.59c-.38-2.52-.77-4.73-1.07-7.27-.3-2.54-.33-4.77-.33-5.47,0-.42.04-1.22.08-1.77.02-.34.06-.59.06-.59,0,0,.05-.22.21-.38,0,0,0,0,0,0,.13-.13.32-.22.52-.22.15,0,.27.04.39.12.11.07.16.13.21.18.05.06.1.17.13.26s.03.11.03.2c0,0-.12.92-.09,2.92.04,2,.25,4.25.49,6.17.25,1.91.57,3.93.92,5.96.36,2.02,1.78,8.37,2.19,10.42.41,2.05,1.16,5.88,1.39,8.67.09,1.07.13,1.87.15,2.51,1.78,4.12,3.84,7.67,6.52,10.74,2.64,3.01,6.64,6.69,11.41,8.99.33-.12.71-.28,1.06-.47.96-.53,1.6-.93,2.1-1.33.5-.4,1.61-1.51,2.28-2.4.67-.89,1.16-1.89,1.58-3,.05-.13.09-.24.12-.35-3.37-.31-7.43-2.63-7.43-6.55,0-4.18,2.61-5.53,8.83-5.53,5.08,0,7.99,1.26,7.86,5.81-.11,3.96-3.46,5.68-6.59,6.16.04.13.09.29.15.46.42,1.12.92,2.12,1.58,3,.67.89,1.78,2,2.28,2.4s1.14.81,2.1,1.33c.44.24.92.43,1.31.56,3.09-1.62,6.22-4.27,9.3-8.28,2.56-3.34,4.63-6.53,6.35-9.58-.04-.47-.08-1.65.14-4.26.23-2.79.99-6.61,1.4-8.66.41-2.05,1.83-8.39,2.19-10.42.36-2.02.68-4.05.92-5.96.25-1.91.46-4.17.49-6.17.04-2-.09-2.92-.09-2.92,0-.09,0-.1.03-.2s.08-.21.13-.26c.05-.06.1-.11.21-.18.11-.08.24-.12.39-.12.21,0,.39.08.52.22,0,0,0,0,0,0,.16.16.21.38.21.38,0,0,.03.25.06.59.04.55.08,1.34.08,1.77,0,.69-.03,2.92-.33,5.47-.3,2.54-.68,4.76-1.07,7.27-.38,2.52-1.23,6.02-1.59,7.59s-1.2,5.86-1.5,7.56c-.3,1.7-.49,3.2-.68,5.81-.03.4-.04,1.15-.04,1.46,0,.44.04.75.07.97,1.17,1.73,2.49,3.05,3.95,3.55,5.48,1.88,6.22.28,19.07-11.09,12.84-11.37,20.55-20.71,21.17-27.98.61-7.26-16.66-16.73-27.07-20.07ZM60.74,70.77s0,0,0,0c-.1.16-.27.28-.47.32-.15.03-.27.02-.4-.03-.12-.05-.18-.09-.24-.14-.06-.05-.14-.14-.18-.23-.04-.09-.05-.1-.07-.19,0,0-.07-.92-.55-2.86-.09-.37-.55-1.6-.92-2.12-.37-.52-.99-1.31-2.4-1.58-1.41-.28-2.95,0-3.69.31-.74.32-1.44,1-1.94,1.92-.5.92-.8,2.35-.86,2.7-.35,1.96-.4,2.89-.4,2.89-.01.08-.02.1-.06.19-.04.09-.11.19-.17.24-.06.05-.12.09-.24.14-.12.06-.25.07-.4.05-.2-.04-.37-.15-.48-.31,0,0,0,0,0,0-.13-.19-.14-.41-.14-.41,0,0,.01-.25.05-.59.06-.55.17-1.34.23-1.76.17-1.07.44-2.01.69-2.76.25-.74.65-1.6,1.44-2.5s2.03-1.37,2.62-1.49c.59-.12,1.46-.27,2.8-.19s2.16.47,2.96,1c.81.52,1.51,1.66,1.88,2.57.37.91.58,1.74.65,2.05.09.42.28,1.24.35,1.79.05.34.07.58.07.59,0,0,0,.22-.13.41ZM99.23,70.61s0,0,0,0c-.11.16-.28.27-.48.31-.15.03-.28,0-.4-.05-.12-.05-.18-.1-.24-.14-.06-.05-.13-.15-.17-.24-.04-.09-.05-.1-.06-.19,0,0-.05-.93-.4-2.89-.06-.35-.36-1.78-.86-2.7s-1.2-1.6-1.94-1.92c-.74-.32-2.28-.58-3.69-.31-1.41.28-2.03,1.07-2.4,1.58-.37.52-.82,1.74-.92,2.12-.49,1.94-.55,2.86-.55,2.86-.02.08-.03.1-.07.19-.04.09-.12.18-.18.23-.06.05-.12.09-.24.14-.13.05-.26.07-.4.03-.2-.04-.36-.16-.47-.32,0,0,0,0,0,0-.13-.19-.13-.41-.13-.41,0,0,.02-.25.07-.59.07-.55.26-1.37.35-1.79.07-.31.28-1.13.65-2.05.37-.91,1.08-2.04,1.88-2.57.81-.52,1.63-.92,2.96-1s2.2.07,2.8.19c.59.12,1.82.59,2.62,1.49.8.9,1.19,1.76,1.44,2.5.25.74.52,1.68.69,2.76.07.42.18,1.21.23,1.76.04.34.05.59.05.59,0,0-.01.22-.14.41Z"/>
  <path class="st0" d="M80.16,114.02c-1.23-.67-2.12-1.45-2.6-1.89s-1.11-.98-2.09-2.38c-.98-1.41-1.04-1.67-1.48-2.86-.06-.15-.09-.27-.14-.41-.05.14-.08.26-.14.41-.44,1.18-.5,1.45-1.48,2.86-.98,1.41-1.6,1.94-2.09,2.38-.49.44-1.38,1.23-2.6,1.89-.12.07-.21.1-.32.16,4.14,1.6,8.77,2.04,13.54.14-.19-.09-.37-.17-.6-.3Z"/>
</svg>